<svg xmlns="http://www.w3.org/2000/svg" viewBox="0 0 53.367 61.101">
  <path d="M7.858,8.3a.523.523,0,0,1,.523-.522h13.4A24.128,24.128,0,0,1,43.721,21.937a21.518,21.518,0,0,1,1.866,8.791,19.819,19.819,0,0,1-.83,5.678.521.521,0,0,0,.3.632,10.149,10.149,0,0,0,7.194.493.556.556,0,0,0,.363-.394,27.526,27.526,0,0,0,.758-6.409,30,30,0,0,0-2.489-11.9,30.753,30.753,0,0,0-6.769-9.8A33.451,33.451,0,0,0,34,2.411,32.245,32.245,0,0,0,21.784,0H3.969a4.16,4.16,0,0,0-2.8,1.166A3.651,3.651,0,0,0,0,3.89V32.256a.513.513,0,0,0,.491.511,16.062,16.062,0,0,1,6.6,1.873.518.518,0,0,0,.77-.45Z" fill="#033040" />
  <path d="M50.8,42.4c-.233.521-.508,1.017-.766,1.523a31.932,31.932,0,0,1-1.668,2.891,2.178,2.178,0,0,1-2.31.909,15.666,15.666,0,0,1-2.47-.79c-1.3-.535-2.579-1.119-3.846-1.719-1.123-.532-2.239-1.075-3.359-1.611a8.418,8.418,0,0,0-7.314.009c-2.1,1.024-4.194,2.065-6.348,3.005a16.327,16.327,0,0,1-13.266-.086c-.535-.243-1.063-.5-1.594-.746-1.593-.749-3.177-1.512-4.774-2.255a8.755,8.755,0,0,0-1.523-.545A2.145,2.145,0,0,1,0,40.879V37.524s-.046-.64.556-.615a15.474,15.474,0,0,1,7.3,2.3c.108.063.218.11.325.175,5.589,3.423,10.6,3.29,16.138-.092,5.285-3.226,11.019-3.129,16.6-.176.363.191.761.337,1.111.542.372.217.745.423,1.118.622,2.447,1.3,4.737,2.161,7.388,1.772,0,0,.343-.029.262.347" fill="#76abbf" />
  <path d="M42.514,53.386a31.64,31.64,0,0,1-4.62,3.306,1.576,1.576,0,0,1-1.471.051l-.045-.022a8.422,8.422,0,0,0-7.319.014c-2.1,1.021-4.183,2.059-6.33,3a16.341,16.341,0,0,1-13.277-.081c-2.141-.973-4.239-2.012-6.368-3a8.439,8.439,0,0,0-2.121-.673A1.177,1.177,0,0,1,0,54.81V51.3A1.21,1.21,0,0,1,1.362,50.1a16.493,16.493,0,0,1,6.5,2.226c.108.063.218.11.325.176.473.289.941.544,1.406.783a13.5,13.5,0,0,0,13.294-.074c.476-.246.954-.507,1.438-.8a15.514,15.514,0,0,1,9.366-2.36,18.333,18.333,0,0,1,7.233,2.184c.363.192.761.337,1.111.542.147.086.293.17.44.253C42.471,53.031,42.737,53.2,42.514,53.386Z" fill="#76abbf" />
</svg>
