<svg xmlns="http://www.w3.org/2000/svg" viewBox="0 0 380.442 29.215">
  <path fill="#76abbf" d="M380.437,15.6a4.388,4.388,0,0,0-6.319-3.88c-10.453,4.8-19.785,1.364-28.981-4.008-.894-.522-1.909-.894-2.833-1.383C328.072-1.2,313.45-1.45,299.969,6.776c-14.137,8.628-26.9,8.967-41.157.237C245.143-1.359,230.1-1.622,215.963,6.46a72.2,72.2,0,0,1-8.834,4.334c-8.749,3.522-17.668,4.336-27.3.326-.792-.318-1.581-.652-2.367-1.019q-.972-.453-1.94-.95-1.05-.538-2.1-1.122c-.519-.289-1.038-.579-1.556-.881-.894-.522-1.909-.894-2.833-1.383C154.8-1.764,140.181-2.012,126.7,6.214c-14.137,8.628-26.9,8.966-41.157.237C71.875-1.922,56.836-2.185,42.7,5.9,30.953,12.609,19.3,16.126,6.311,10.614A4.348,4.348,0,0,0,.272,14.681a41.477,41.477,0,0,1-.213,5.4c-.465,3.926,1.845,5.278,6.512,6.4a55.747,55.747,0,0,0,37.374-4.266q5.23-2.549,10.491-5.056a20.369,20.369,0,0,1,18.1-.135c5.432,2.524,10.784,5.174,16.243,7.654a41.316,41.316,0,0,0,33.52.355c5.6-2.434,11.045-5.142,16.508-7.8a21.456,21.456,0,0,1,18.648-.021c6.076,2.906,12.1,5.918,18.374,8.494.13.053.262.09.392.142.808.322,1.618.613,2.431.881a61.814,61.814,0,0,0,7.53,1.681,44.616,44.616,0,0,0,27.331-3.824q7.074-3.46,14.189-6.862a20.371,20.371,0,0,1,18.1-.135c5.431,2.524,10.783,5.173,16.242,7.654a41.308,41.308,0,0,0,33.52.355c5.6-2.434,11.045-5.142,16.508-7.8a21.456,21.456,0,0,1,18.648-.021c6.077,2.906,12.1,5.918,18.374,8.494a36.531,36.531,0,0,0,27.191.631c1.569-.576,3.8-1.868,3.9-2.944C380.427,21.268,380.457,18.572,380.437,15.6Z"/>
</svg>
